<svg width="20" height="20" viewBox="0 0 20 20" fill="none" xmlns="http://www.w3.org/2000/svg">
<g clip-path="url(#clip0_2:3906)">
<path fill-rule="evenodd" clip-rule="evenodd" d="M10 4.13336C9.85855 4.13336 9.7229 4.18955 9.62288 4.28957C9.52286 4.38959 9.46667 4.52525 9.46667 4.6667C9.46667 4.80814 9.52286 4.9438 9.62288 5.04382C9.7229 5.14384 9.85855 5.20003 10 5.20003H19.3333C19.4748 5.20003 19.6104 5.14384 19.7105 5.04382C19.8105 4.9438 19.8667 4.80814 19.8667 4.6667C19.8667 4.52525 19.8105 4.38959 19.7105 4.28957C19.6104 4.18955 19.4748 4.13336 19.3333 4.13336H10ZM10 6.80003C9.92996 6.80003 9.86061 6.81382 9.7959 6.84063C9.7312 6.86743 9.6724 6.90671 9.62288 6.95624C9.57335 7.00576 9.53407 7.06456 9.50727 7.12926C9.48046 7.19397 9.46667 7.26332 9.46667 7.33336C9.46667 7.4034 9.48046 7.47275 9.50727 7.53746C9.53407 7.60217 9.57335 7.66096 9.62288 7.71049C9.6724 7.76001 9.7312 7.79929 9.7959 7.8261C9.86061 7.8529 9.92996 7.8667 10 7.8667H19.3333C19.4748 7.8667 19.6104 7.8105 19.7105 7.71049C19.8105 7.61047 19.8667 7.47481 19.8667 7.33336C19.8667 7.19191 19.8105 7.05626 19.7105 6.95624C19.6104 6.85622 19.4748 6.80003 19.3333 6.80003H10ZM9.46667 10C9.46667 9.7067 9.70667 9.4667 10 9.4667H19.3333C19.4748 9.4667 19.6104 9.52289 19.7105 9.62291C19.8105 9.72292 19.8667 9.85858 19.8667 10C19.8667 10.1415 19.8105 10.2771 19.7105 10.3772C19.6104 10.4772 19.4748 10.5334 19.3333 10.5334H10C9.92996 10.5334 9.86061 10.5196 9.7959 10.4928C9.7312 10.466 9.6724 10.4267 9.62288 10.3772C9.57335 10.3276 9.53407 10.2688 9.50727 10.2041C9.48046 10.1394 9.46667 10.0701 9.46667 10ZM10 12.1334C9.85855 12.1334 9.7229 12.1896 9.62288 12.2896C9.52286 12.3896 9.46667 12.5252 9.46667 12.6667C9.46667 12.8081 9.52286 12.9438 9.62288 13.0438C9.7229 13.1438 9.85855 13.2 10 13.2H19.3333C19.4748 13.2 19.6104 13.1438 19.7105 13.0438C19.8105 12.9438 19.8667 12.8081 19.8667 12.6667C19.8667 12.5252 19.8105 12.3896 19.7105 12.2896C19.6104 12.1896 19.4748 12.1334 19.3333 12.1334H10ZM9.46667 15.3334C9.46667 15.04 9.70667 14.8 10 14.8H19.3333C19.4748 14.8 19.6104 14.8562 19.7105 14.9562C19.8105 15.0563 19.8667 15.1919 19.8667 15.3334C19.8667 15.4748 19.8105 15.6105 19.7105 15.7105C19.6104 15.8105 19.4748 15.8667 19.3333 15.8667H10C9.85855 15.8667 9.7229 15.8105 9.62288 15.7105C9.52286 15.6105 9.46667 15.4748 9.46667 15.3334ZM3.33333 12.3334L6.66667 8.00003H0L3.33333 12.3334Z" fill="#898B96"/>
<path fill-rule="evenodd" clip-rule="evenodd" d="M9.62288 4.28957C9.7229 4.18955 9.85856 4.13336 10 4.13336H19.3333C19.4748 4.13336 19.6104 4.18955 19.7105 4.28957C19.8105 4.38959 19.8667 4.52525 19.8667 4.6667C19.8667 4.80814 19.8105 4.9438 19.7105 5.04382C19.6104 5.14384 19.4748 5.20003 19.3333 5.20003H10C9.85856 5.20003 9.7229 5.14384 9.62288 5.04382C9.52287 4.9438 9.46667 4.80814 9.46667 4.6667C9.46667 4.52525 9.52287 4.38959 9.62288 4.28957ZM9.79591 6.84063C9.86062 6.81382 9.92997 6.80003 10 6.80003H19.3333C19.4748 6.80003 19.6104 6.85622 19.7105 6.95624C19.8105 7.05626 19.8667 7.19191 19.8667 7.33336C19.8667 7.47481 19.8105 7.61047 19.7105 7.71049C19.6104 7.8105 19.4748 7.8667 19.3333 7.8667H10C9.92997 7.8667 9.86062 7.8529 9.79591 7.8261C9.7312 7.79929 9.67241 7.76001 9.62288 7.71049C9.57336 7.66096 9.53408 7.60217 9.50727 7.53746C9.48047 7.47275 9.46667 7.4034 9.46667 7.33336C9.46667 7.26332 9.48047 7.19397 9.50727 7.12926C9.53408 7.06456 9.57336 7.00576 9.62288 6.95624C9.67241 6.90671 9.7312 6.86743 9.79591 6.84063ZM10 9.4667C9.70667 9.4667 9.46667 9.7067 9.46667 10C9.46667 10.0701 9.48047 10.1394 9.50727 10.2041C9.53408 10.2688 9.57336 10.3276 9.62288 10.3772C9.67241 10.4267 9.7312 10.466 9.79591 10.4928C9.86062 10.5196 9.92997 10.5334 10 10.5334H19.3333C19.4748 10.5334 19.6104 10.4772 19.7105 10.3772C19.8105 10.2771 19.8667 10.1415 19.8667 10C19.8667 9.85858 19.8105 9.72292 19.7105 9.62291C19.6104 9.52289 19.4748 9.4667 19.3333 9.4667H10ZM9.62288 12.2896C9.7229 12.1896 9.85856 12.1334 10 12.1334H19.3333C19.4748 12.1334 19.6104 12.1896 19.7105 12.2896C19.8105 12.3896 19.8667 12.5252 19.8667 12.6667C19.8667 12.8081 19.8105 12.9438 19.7105 13.0438C19.6104 13.1438 19.4748 13.2 19.3333 13.2H10C9.85856 13.2 9.7229 13.1438 9.62288 13.0438C9.52287 12.9438 9.46667 12.8081 9.46667 12.6667C9.46667 12.5252 9.52287 12.3896 9.62288 12.2896ZM10 14.8C9.70667 14.8 9.46667 15.04 9.46667 15.3334C9.46667 15.4748 9.52287 15.6105 9.62288 15.7105C9.7229 15.8105 9.85856 15.8667 10 15.8667H19.3333C19.4748 15.8667 19.6104 15.8105 19.7105 15.7105C19.8105 15.6105 19.8667 15.4748 19.8667 15.3334C19.8667 15.1919 19.8105 15.0563 19.7105 14.9562C19.6104 14.8562 19.4748 14.8 19.3333 14.8H10Z" fill="#898B96"/>
</g>
<defs>
<clipPath id="clip0_2:3906">
<rect width="20" height="20" fill="white"/>
</clipPath>
</defs>
</svg>
