<svg width="16" height="14" viewBox="0 0 16 14" fill="none" xmlns="http://www.w3.org/2000/svg">
<path d="M0.539946 3.37L0.499946 2.5C0.499946 1.96957 0.71066 1.46086 1.08573 1.08579C1.46081 0.710714 1.96951 0.5 2.49995 0.5H6.17195C6.70234 0.500113 7.21096 0.710901 7.58595 1.086L8.41395 1.914C8.78893 2.2891 9.29756 2.49989 9.82795 2.5H13.8099C14.0879 2.49997 14.3627 2.55787 14.617 2.66999C14.8713 2.78212 15.0995 2.94601 15.2869 3.15122C15.4743 3.35643 15.6169 3.59845 15.7056 3.86184C15.7943 4.12524 15.8271 4.40422 15.8019 4.681L15.1649 11.681C15.1198 12.1779 14.8905 12.64 14.5221 12.9766C14.1538 13.3131 13.6729 13.4998 13.1739 13.5H2.82595C2.32698 13.4998 1.84612 13.3131 1.47774 12.9766C1.10937 12.64 0.880102 12.1779 0.834946 11.681L0.197946 4.681C0.155332 4.21778 0.27634 3.75427 0.539946 3.371V3.37ZM2.18995 3.5C2.05103 3.49999 1.91364 3.52893 1.78653 3.58496C1.65942 3.64099 1.54537 3.72289 1.45167 3.82544C1.35796 3.92799 1.28665 4.04894 1.24228 4.18058C1.1979 4.31221 1.18144 4.45165 1.19395 4.59L1.83095 11.59C1.8534 11.8385 1.96791 12.0696 2.152 12.2379C2.3361 12.4063 2.57647 12.4998 2.82595 12.5H13.1739C13.4234 12.4998 13.6638 12.4063 13.8479 12.2379C14.032 12.0696 14.1465 11.8385 14.1689 11.59L14.8059 4.59C14.8184 4.45165 14.802 4.31221 14.7576 4.18058C14.7132 4.04894 14.6419 3.92799 14.5482 3.82544C14.4545 3.72289 14.3405 3.64099 14.2134 3.58496C14.0863 3.52893 13.9489 3.49999 13.8099 3.5H2.18995ZM6.87995 1.793C6.78699 1.70002 6.67661 1.62628 6.55512 1.576C6.43364 1.52572 6.30343 1.4999 6.17195 1.5H2.49995C2.23799 1.49995 1.98647 1.6027 1.79947 1.78614C1.61247 1.96959 1.50492 2.21909 1.49995 2.481L1.50595 2.62C1.71995 2.542 1.94995 2.5 2.18995 2.5H7.58595L6.87895 1.793H6.87995Z" fill="#898B96"/>
</svg>
