<svg width="18" height="18" viewBox="0 0 18 18" fill="none" xmlns="http://www.w3.org/2000/svg">
<path d="M7.50012 16.5H10.5001H7.50012ZM3.75012 6.75003C3.75012 5.35764 4.30325 4.02229 5.28781 3.03772C6.27238 2.05315 7.60774 1.50003 9.00012 1.50003C10.3925 1.50003 11.7279 2.05315 12.7124 3.03772C13.697 4.02229 14.2501 5.35764 14.2501 6.75003C14.2506 7.59534 14.0462 8.42816 13.6543 9.17715C13.2624 9.92613 12.6948 10.569 12.0001 11.0505L11.5936 12.975C11.5398 13.3298 11.3606 13.6534 11.0886 13.8874C10.8165 14.1213 10.4697 14.25 10.1109 14.25H7.88937C7.53059 14.25 7.18371 14.1213 6.91167 13.8874C6.63962 13.6534 6.46044 13.3298 6.40662 12.975L6.00012 11.0588C5.30518 10.5755 4.73755 9.93117 4.34574 9.18085C3.95392 8.43052 3.74956 7.5965 3.75012 6.75003V6.75003Z" stroke="#F6DA2B" stroke-linecap="round" stroke-linejoin="round"/>
</svg>
