<svg width="24" height="24" viewBox="0 0 24 24" fill="none" xmlns="http://www.w3.org/2000/svg">
<path d="M9.531 8.25H6C4.80653 8.25 3.66193 8.72411 2.81802 9.56802C1.97411 10.4119 1.5 11.5565 1.5 12.75C1.5 13.9435 1.97411 15.0881 2.81802 15.932C3.66193 16.7759 4.80653 17.25 6 17.25H10.5C11.2201 17.2504 11.9298 17.0779 12.5694 16.7471C13.2091 16.4164 13.76 15.9369 14.1759 15.349C14.5918 14.7612 14.8606 14.0821 14.9596 13.3688C15.0586 12.6555 14.985 11.9289 14.745 11.25H13.5C13.371 11.25 13.245 11.265 13.125 11.2965C13.378 11.7533 13.5074 12.2681 13.5004 12.7902C13.4934 13.3123 13.3502 13.8235 13.0851 14.2733C12.82 14.7232 12.442 15.096 11.9886 15.355C11.5353 15.6139 11.0221 15.7501 10.5 15.75H6C5.20435 15.75 4.44129 15.4339 3.87868 14.8713C3.31607 14.3087 3 13.5456 3 12.75C3 11.9544 3.31607 11.1913 3.87868 10.6287C4.44129 10.0661 5.20435 9.75 6 9.75H8.3025C8.6295 9.186 9.045 8.679 9.5325 8.25H9.531Z" fill="#898B96"/>
<path d="M13.4998 8.25C12.7797 8.24962 12.07 8.42207 11.4304 8.75285C10.7907 9.08364 10.2398 9.5631 9.82388 10.151C9.40797 10.7388 9.13922 11.4179 9.04019 12.1312C8.94116 12.8445 9.01476 13.5711 9.2548 14.25H10.9018C10.6385 13.7939 10.4999 13.2766 10.4999 12.75C10.4999 12.2234 10.6385 11.7061 10.9018 11.25C11.1651 10.794 11.5438 10.4153 11.9998 10.152C12.4559 9.88864 12.9732 9.75001 13.4998 9.75H17.9998C18.7954 9.75 19.5585 10.0661 20.1211 10.6287C20.6837 11.1913 20.9998 11.9544 20.9998 12.75C20.9998 13.5457 20.6837 14.3087 20.1211 14.8713C19.5585 15.4339 18.7954 15.75 17.9998 15.75H15.6973C15.3709 16.3131 14.9556 16.8197 14.4673 17.25H17.9998C18.5907 17.25 19.1759 17.1336 19.7219 16.9075C20.2678 16.6813 20.7639 16.3498 21.1818 15.932C21.5996 15.5141 21.9311 15.018 22.1573 14.4721C22.3834 13.9261 22.4998 13.3409 22.4998 12.75C22.4998 12.1591 22.3834 11.5739 22.1573 11.0279C21.9311 10.482 21.5996 9.98588 21.1818 9.56802C20.7639 9.15016 20.2678 8.81869 19.7219 8.59254C19.1759 8.3664 18.5907 8.25 17.9998 8.25H13.4998Z" fill="#898B96"/>
</svg>
