<svg width="20" height="20" viewBox="0 0 20 20" fill="none" xmlns="http://www.w3.org/2000/svg">
<g clip-path="url(#clip0_2:8024)">
<path d="M2.33301 3.33341V16.6667C2.33301 17.1088 2.5086 17.5327 2.82116 17.8453C3.13372 18.1578 3.55765 18.3334 3.99967 18.3334H13.9997C14.4417 18.3334 14.8656 18.1578 15.1782 17.8453C15.4907 17.5327 15.6663 17.1088 15.6663 16.6667V6.95175C15.6663 6.72971 15.6219 6.50992 15.5358 6.30529C15.4496 6.10065 15.3235 5.91528 15.1647 5.76008L11.4647 2.14175C11.1533 1.8373 10.7352 1.6668 10.2997 1.66675H3.99967C3.55765 1.66675 3.13372 1.84234 2.82116 2.1549C2.5086 2.46746 2.33301 2.89139 2.33301 3.33341V3.33341Z" stroke="#898B96" stroke-linecap="round" stroke-linejoin="round"/>
<path d="M10.6664 1.66675V5.00008C10.6664 5.44211 10.842 5.86603 11.1545 6.17859C11.4671 6.49115 11.891 6.66675 12.333 6.66675H15.6664" stroke="#898B96" stroke-linejoin="round"/>
<path d="M10 11.5L10.5 10L11.5 8.5L12.5 7.5L13.5 6.5L15 5L16.5 4L19 2L17 5.5L14.5 9.5L12.5 12L11 12.5H10V11.5Z" fill="white"/>
<path d="M19.853 1.11451C19.9314 1.18142 19.986 1.2719 20.0088 1.37242C20.0315 1.47294 20.0211 1.57812 19.9791 1.67223C18.5179 4.9479 15.4495 9.47463 13.2033 11.8335C12.5737 12.4934 11.7973 12.9953 10.9371 13.2985C10.9199 13.5153 10.8798 13.8123 10.7843 14.1274C10.5923 14.7568 10.1473 15.5399 9.15313 15.7891C8.19032 16.0184 7.19252 16.0612 6.21362 15.9152C6.0316 15.8864 5.85214 15.8433 5.67691 15.7863C5.5148 15.7369 5.3637 15.6568 5.23188 15.5504C5.14494 15.4764 5.07796 15.3819 5.03706 15.2753C4.98636 15.1386 4.98772 14.988 5.04088 14.8523C5.1316 14.6183 5.34266 14.4894 5.48113 14.4206C5.85741 14.2325 6.07801 13.988 6.30912 13.6318C6.39985 13.4942 6.48485 13.3481 6.58321 13.181L6.69495 12.9919C6.83915 12.7484 7.00628 12.4762 7.21638 12.1821C7.72062 11.4763 8.36334 11.2987 8.88382 11.3264C9.00415 11.3331 9.11589 11.3503 9.21616 11.3722C9.27537 11.208 9.35177 11.0093 9.44345 10.7916C9.69271 10.2004 10.0718 9.43643 10.577 8.81568C12.6551 6.26581 16.479 2.88891 19.2838 1.07631C19.3702 1.02058 19.4722 0.99419 19.5748 1.00107C19.6773 1.00795 19.7749 1.04774 19.853 1.11451ZM9.23335 12.3759C9.10663 12.3208 8.97117 12.2885 8.8332 12.2804C8.59827 12.268 8.28599 12.3282 7.99375 12.7379C7.80562 13.0005 7.65473 13.2459 7.51625 13.4799L7.41598 13.649C7.31475 13.8218 7.21256 13.9947 7.11037 14.1532C6.91696 14.4666 6.67151 14.7446 6.38457 14.9755C7.04352 15.0824 8.04246 15.0815 8.92202 14.8609C9.45587 14.7281 9.72709 14.3175 9.87034 13.8486C9.93949 13.6156 9.9799 13.3751 9.99067 13.1323L9.23335 12.3759ZM10.6086 12.4008C10.7232 12.3626 10.8731 12.3053 11.046 12.226C11.5961 11.9708 12.0934 11.6144 12.5119 11.1755C14.3264 9.2693 16.7254 5.85611 18.2916 2.93284C15.8181 4.77314 12.976 7.38317 11.3181 9.41924C10.896 9.93781 10.5589 10.6063 10.323 11.1631C10.2075 11.4381 10.1186 11.6788 10.0604 11.8507V11.8516L10.6095 12.4008H10.6086ZM5.85932 15.304L5.866 15.2992C5.86395 15.3008 5.8617 15.3021 5.85932 15.303V15.304ZM9.28015 12.3979L9.28206 12.3989H9.28015V12.3979Z" fill="#898B96"/>
</g>
<defs>
<clipPath id="clip0_2:8024">
<rect width="20" height="20" fill="white"/>
</clipPath>
</defs>
</svg>
