<svg width="18" height="18" viewBox="0 0 18 18" fill="none" xmlns="http://www.w3.org/2000/svg">
<path d="M9 1.125C9.26107 1.125 9.51145 1.22871 9.69606 1.41332C9.88066 1.59792 9.98438 1.8483 9.98438 2.10938V8.01562H15.8906C16.1517 8.01562 16.4021 8.11934 16.5867 8.30394C16.7713 8.48855 16.875 8.73893 16.875 9C16.875 9.26107 16.7713 9.51145 16.5867 9.69606C16.4021 9.88066 16.1517 9.98438 15.8906 9.98438H9.98438V15.8906C9.98438 16.1517 9.88066 16.4021 9.69606 16.5867C9.51145 16.7713 9.26107 16.875 9 16.875C8.73893 16.875 8.48855 16.7713 8.30394 16.5867C8.11934 16.4021 8.01562 16.1517 8.01562 15.8906V9.98438H2.10938C1.8483 9.98438 1.59792 9.88066 1.41332 9.69606C1.22871 9.51145 1.125 9.26107 1.125 9C1.125 8.73893 1.22871 8.48855 1.41332 8.30394C1.59792 8.11934 1.8483 8.01562 2.10938 8.01562H8.01562V2.10938C8.01562 1.8483 8.11934 1.59792 8.30394 1.41332C8.48855 1.22871 8.73893 1.125 9 1.125Z" fill="#F6DA2B"/>
</svg>
