<svg width="24" height="24" viewBox="0 0 24 24" fill="none" xmlns="http://www.w3.org/2000/svg">
<path d="M9.75007 3V8.10375L5.33032 5.5515L3.08032 9.45L7.50007 12L3.08032 14.55L5.33032 18.4485L9.75007 15.8962V21H14.2501V15.8962L18.6698 18.4485L20.9198 14.55L16.5001 12L20.9198 9.45L18.6698 5.5515L14.2501 8.10375V3H9.75007ZM11.2501 4.5H12.7501V10.7025L18.1201 7.60125L18.8701 8.89875L13.5001 12L18.8701 15.1012L18.1201 16.3988L12.7501 13.2975V19.5H11.2501V13.2975L5.88007 16.3988L5.13007 15.1012L10.5001 12L5.13007 8.89875L5.88007 7.60125L11.2501 10.7025V4.5Z" fill="#898B96"/>
</svg>
