<svg width="18" height="18" viewBox="0 0 18 18" fill="none" xmlns="http://www.w3.org/2000/svg">
<path d="M10.435 5.57H3.935L6.715 2.825C6.80981 2.73018 6.86308 2.60158 6.86308 2.4675C6.86308 2.33341 6.80981 2.20481 6.715 2.11C6.62019 2.01518 6.49159 1.96191 6.3575 1.96191C6.22341 1.96191 6.09481 2.01518 6 2.11L2 6.065L6 10C6.09415 10.0935 6.22159 10.1457 6.35427 10.1453C6.48695 10.1448 6.61401 10.0916 6.7075 9.9975C6.80099 9.90334 6.85325 9.77591 6.85278 9.64323C6.85231 9.51055 6.79915 9.38348 6.705 9.29L3.93 6.57H10.43C11.6315 6.56333 12.7867 7.03323 13.6423 7.87672C14.498 8.72022 14.9844 9.86852 14.995 11.07C14.9892 11.9028 14.7525 12.7176 14.3111 13.4238C13.8697 14.13 13.241 14.6999 12.495 15.07C12.3717 15.1323 12.2782 15.2411 12.235 15.3724C12.2137 15.4374 12.2053 15.5059 12.2105 15.5742C12.2156 15.6424 12.2341 15.7089 12.265 15.77C12.2959 15.8311 12.3384 15.8854 12.3903 15.9301C12.4422 15.9747 12.5024 16.0086 12.5674 16.03C12.6986 16.0731 12.8417 16.0623 12.965 16C14.0736 15.4406 14.9602 14.5225 15.4807 13.3951C16.0012 12.2678 16.1249 10.9975 15.8316 9.79086C15.5384 8.58427 14.8455 7.51241 13.8656 6.74967C12.8858 5.98693 11.6767 5.57821 10.435 5.59V5.57Z" fill="#898B96"/>
</svg>
