<svg width="14" height="14" viewBox="0 0 14 14" fill="none" xmlns="http://www.w3.org/2000/svg">
<g clip-path="url(#clip0_2:8185)">
<path d="M7.00003 0C6.71441 0 6.44049 0.113461 6.23853 0.315423C6.03657 0.517386 5.92311 0.791305 5.92311 1.07692V6.46154C5.92311 6.74716 6.03657 7.02108 6.23853 7.22304C6.44049 7.425 6.71441 7.53846 7.00003 7.53846C7.28565 7.53846 7.55957 7.425 7.76153 7.22304C7.96349 7.02108 8.07695 6.74716 8.07695 6.46154V1.07692C8.07695 0.791305 7.96349 0.517386 7.76153 0.315423C7.55957 0.113461 7.28565 0 7.00003 0V0ZM3.1468 1.39677C2.99145 1.41639 2.84516 1.48075 2.72572 1.582C1.90678 2.22761 1.24507 3.05069 0.790454 3.9892C0.335842 4.92772 0.10019 5.95718 0.101261 7C0.101261 10.8005 3.19849 13.8993 7.00003 13.8993C10.8016 13.8993 13.8993 10.8005 13.8993 7C13.8993 4.80685 12.8752 2.84469 11.2743 1.58146C11.107 1.44758 10.8933 1.38567 10.6802 1.40935C10.4672 1.43303 10.2723 1.54036 10.1385 1.70773C10.0046 1.8751 9.94266 2.0888 9.96634 2.30182C9.99002 2.51484 10.0973 2.70973 10.2647 2.84362C10.8944 3.33796 11.4034 3.96905 11.7533 4.68914C12.1031 5.40922 12.2846 6.19944 12.284 7C12.2857 7.69437 12.1501 8.38224 11.8852 9.02408C11.6203 9.66593 11.2311 10.2491 10.7401 10.7401C10.2491 11.2311 9.66596 11.6202 9.02411 11.8852C8.38227 12.1501 7.6944 12.2856 7.00003 12.2839C6.30566 12.2856 5.61779 12.1501 4.97595 11.8852C4.3341 11.6202 3.75093 11.2311 3.25993 10.7401C2.76893 10.2491 2.37979 9.66593 2.11485 9.02408C1.84991 8.38224 1.7144 7.69437 1.71611 7C1.71611 5.31031 2.50818 3.81231 3.73534 2.84362C3.87794 2.73651 3.98107 2.58522 4.02866 2.41334C4.07626 2.24147 4.06562 2.05867 3.99842 1.89347C3.93123 1.72828 3.81124 1.58996 3.65719 1.50011C3.50313 1.41026 3.32367 1.37392 3.1468 1.39677V1.39677Z" fill="#383838"/>
</g>
<defs>
<clipPath id="clip0_2:8185">
<rect width="14" height="14" fill="white"/>
</clipPath>
</defs>
</svg>
