<svg width="16" height="16" viewBox="0 0 16 16" fill="none" xmlns="http://www.w3.org/2000/svg">
<path d="M14.4714 9.138C14.5964 9.01298 14.6666 8.84344 14.6666 8.66667C14.6666 8.48989 14.5964 8.32035 14.4714 8.19533L12.4714 6.19533C12.3464 6.07035 12.1768 6.00014 12.0001 6.00014C11.8233 6.00014 11.6537 6.07035 11.5287 6.19533L9.52872 8.19533C9.40728 8.32107 9.34009 8.48947 9.3416 8.66427C9.34312 8.83907 9.41324 9.00627 9.53684 9.12988C9.66045 9.25348 9.82765 9.3236 10.0025 9.32512C10.1773 9.32663 10.3457 9.25944 10.4714 9.138L11.3334 8.276V9.33333C11.3334 9.51014 11.4036 9.67971 11.5286 9.80474C11.6537 9.92976 11.8232 10 12.0001 10C12.1769 10 12.3464 9.92976 12.4715 9.80474C12.5965 9.67971 12.6667 9.51014 12.6667 9.33333V8.276L13.5287 9.138C13.6537 9.26298 13.8233 9.33319 14.0001 9.33319C14.1768 9.33319 14.3464 9.26298 14.4714 9.138ZM6.47139 6.862C6.59637 6.98702 6.66658 7.15656 6.66658 7.33333C6.66658 7.51011 6.59637 7.67965 6.47139 7.80467L4.47139 9.80467C4.34637 9.92965 4.17683 9.99986 4.00005 9.99986C3.82328 9.99986 3.65374 9.92965 3.52872 9.80467L1.52872 7.80467C1.46505 7.74317 1.41426 7.66961 1.37932 7.58827C1.34438 7.50693 1.32599 7.41945 1.32522 7.33093C1.32445 7.24241 1.34132 7.15463 1.37484 7.0727C1.40836 6.99077 1.45786 6.91633 1.52046 6.85374C1.58305 6.79114 1.65749 6.74164 1.73942 6.70812C1.82135 6.6746 1.90914 6.65773 1.99765 6.6585C2.08617 6.65927 2.17365 6.67766 2.25499 6.7126C2.33633 6.74754 2.40989 6.79833 2.47139 6.862L3.33339 7.724V6.66667C3.33339 6.48986 3.40363 6.32029 3.52865 6.19526C3.65367 6.07024 3.82324 6 4.00005 6C4.17686 6 4.34643 6.07024 4.47146 6.19526C4.59648 6.32029 4.66672 6.48986 4.66672 6.66667V7.724L5.52872 6.862C5.65374 6.73702 5.82328 6.66681 6.00005 6.66681C6.17683 6.66681 6.34637 6.73702 6.47139 6.862Z" fill="#383838"/>
<path d="M12 8.66665C12.1769 8.66665 12.3464 8.73688 12.4714 8.86191C12.5965 8.98693 12.6667 9.1565 12.6667 9.33331C12.6667 10.2784 12.3797 11.2012 11.8438 11.9796C11.3079 12.758 10.5482 13.3553 9.66537 13.6926C8.78253 14.0298 7.8181 14.0911 6.89969 13.8683C5.98127 13.6454 5.15216 13.149 4.52204 12.4446C4.46269 12.3796 4.41682 12.3034 4.38708 12.2205C4.35734 12.1376 4.34432 12.0496 4.34877 11.9617C4.35322 11.8737 4.37505 11.7875 4.41301 11.7081C4.45096 11.6286 4.50428 11.5574 4.5699 11.4987C4.63551 11.4399 4.71211 11.3948 4.79528 11.3658C4.87845 11.3368 4.96653 11.3246 5.05444 11.3299C5.14235 11.3352 5.22835 11.3578 5.30746 11.3965C5.38658 11.4352 5.45724 11.4892 5.51537 11.5553C5.96541 12.0585 6.55763 12.4132 7.21367 12.5725C7.86971 12.7318 8.55865 12.6881 9.18932 12.4472C9.81999 12.2063 10.3627 11.7797 10.7455 11.2236C11.1284 10.6676 11.3334 10.0084 11.3334 9.33331C11.3334 9.1565 11.4036 8.98693 11.5286 8.86191C11.6537 8.73688 11.8232 8.66665 12 8.66665ZM11.4267 4.49665C11.5583 4.37862 11.6377 4.21314 11.6473 4.03661C11.6569 3.86008 11.596 3.68695 11.478 3.55531C10.8479 2.85097 10.0188 2.35454 9.10039 2.1317C8.18198 1.90887 7.21755 1.97013 6.33471 2.30738C5.45187 2.64463 4.69223 3.24198 4.1563 4.02039C3.62037 4.7988 3.3334 5.72158 3.33337 6.66665C3.33337 6.84346 3.40361 7.01303 3.52864 7.13805C3.65366 7.26307 3.82323 7.33331 4.00004 7.33331C4.17685 7.33331 4.34642 7.26307 4.47145 7.13805C4.59647 7.01303 4.66671 6.84346 4.66671 6.66665C4.66672 5.99155 4.87172 5.33237 5.25457 4.77633C5.63743 4.22029 6.1801 3.79361 6.81076 3.55275C7.44143 3.31188 8.13037 3.26819 8.78641 3.42745C9.44245 3.58672 10.0347 3.94143 10.4847 4.44465C10.6026 4.57636 10.7681 4.65584 10.9446 4.66559C11.1211 4.67534 11.2943 4.61457 11.426 4.49665H11.4267Z" fill="#383838"/>
</svg>
