<svg width="14" height="14" viewBox="0 0 14 14" fill="none" xmlns="http://www.w3.org/2000/svg">
<path d="M7.00002 4.42859C6.66233 4.42859 6.32795 4.4951 6.01597 4.62433C5.70399 4.75355 5.42052 4.94296 5.18174 5.18174C4.94296 5.42052 4.75355 5.70399 4.62433 6.01597C4.4951 6.32795 4.42859 6.66233 4.42859 7.00002C4.42859 7.3377 4.4951 7.67208 4.62433 7.98406C4.75355 8.29604 4.94296 8.57951 5.18174 8.81829C5.42052 9.05707 5.70399 9.24648 6.01597 9.37571C6.32795 9.50493 6.66233 9.57145 7.00002 9.57145C7.682 9.57145 8.33606 9.30053 8.81829 8.81829C9.30053 8.33606 9.57145 7.682 9.57145 7.00002C9.57145 6.31803 9.30053 5.66398 8.81829 5.18174C8.33606 4.69951 7.682 4.42859 7.00002 4.42859ZM5.28573 7.00002C5.28573 6.77489 5.33007 6.55198 5.41622 6.34399C5.50237 6.136 5.62865 5.94702 5.78783 5.78783C5.94702 5.62865 6.136 5.50237 6.34399 5.41622C6.55198 5.33007 6.77489 5.28573 7.00002 5.28573C7.22514 5.28573 7.44806 5.33007 7.65605 5.41622C7.86403 5.50237 8.05301 5.62865 8.2122 5.78783C8.37139 5.94702 8.49766 6.136 8.58381 6.34399C8.66996 6.55198 8.7143 6.77489 8.7143 7.00002C8.7143 7.45467 8.53369 7.89071 8.2122 8.2122C7.89071 8.53369 7.45467 8.7143 7.00002 8.7143C6.54536 8.7143 6.10933 8.53369 5.78783 8.2122C5.46634 7.89071 5.28573 7.45467 5.28573 7.00002Z" fill="#383838"/>
<path d="M11.4057 11.7971L10.4183 11.3634C10.2778 11.3023 10.1249 11.275 9.97189 11.2835C9.8189 11.292 9.67002 11.3362 9.53715 11.4125C9.27029 11.5668 9.1 11.8394 9.06629 12.1463L8.94743 13.2205C8.93546 13.3285 8.89044 13.4301 8.81854 13.5115C8.74664 13.5929 8.65136 13.6502 8.54572 13.6754C7.5291 13.9177 6.46976 13.9177 5.45315 13.6754C5.34761 13.6501 5.25245 13.5928 5.18066 13.5114C5.10887 13.43 5.06394 13.3284 5.052 13.2205L4.93315 12.148C4.91608 11.997 4.86387 11.8522 4.78071 11.7251C4.69755 11.5979 4.58575 11.4921 4.45429 11.416C4.32296 11.34 4.17562 11.296 4.02415 11.2875C3.87268 11.2789 3.72132 11.3061 3.58229 11.3668L2.59486 11.8005C2.49504 11.8444 2.38406 11.8561 2.27728 11.8341C2.1705 11.8121 2.0732 11.7574 1.99886 11.6777C1.28815 10.9161 0.75929 10.0033 0.452002 9.00796C0.419691 8.90335 0.420703 8.79128 0.454897 8.68726C0.489091 8.58324 0.554776 8.49243 0.642859 8.42739L1.51543 7.78282C1.63827 7.69257 1.73815 7.57468 1.80699 7.43868C1.87583 7.30268 1.9117 7.15239 1.9117 6.99996C1.9117 6.84754 1.87583 6.69725 1.80699 6.56125C1.73815 6.42525 1.63827 6.30736 1.51543 6.21711L0.642859 5.57425C0.554663 5.50918 0.488904 5.41827 0.454705 5.31413C0.420506 5.21 0.419561 5.0978 0.452002 4.99311C0.759926 3.99863 1.28918 3.08686 2 2.32625C2.07441 2.2466 2.17174 2.19204 2.27851 2.17013C2.38529 2.14822 2.49624 2.16005 2.596 2.20396L3.57886 2.63654C3.71871 2.69673 3.8707 2.72334 4.02268 2.71426C4.17466 2.70517 4.3224 2.66064 4.45408 2.58422C4.58576 2.5078 4.69773 2.40161 4.78101 2.27416C4.8643 2.14671 4.9166 2.00154 4.93372 1.85025L5.05372 0.777108C5.0658 0.667937 5.11166 0.565263 5.18491 0.483413C5.25815 0.401563 5.35512 0.344622 5.46229 0.320537C5.96572 0.208537 6.47943 0.149108 7.00743 0.142822C7.52286 0.148537 8.036 0.208537 8.53886 0.320537C8.64615 0.344576 8.74322 0.401578 8.81649 0.483555C8.88976 0.565532 8.93554 0.668377 8.94743 0.777679L9.06686 1.85082C9.09261 2.08881 9.20528 2.30892 9.38327 2.46899C9.56126 2.62905 9.79206 2.71781 10.0314 2.71825C10.1646 2.71825 10.2966 2.69025 10.42 2.63596L11.4029 2.20339C11.5026 2.15947 11.6136 2.14765 11.7203 2.16956C11.8271 2.19147 11.9245 2.24602 11.9989 2.32568C12.7095 3.08632 13.2386 3.9981 13.5463 4.99254C13.5787 5.0971 13.5777 5.20913 13.5436 5.31314C13.5096 5.41715 13.444 5.508 13.356 5.57311L12.4846 6.21711C12.236 6.39996 12.0857 6.69082 12.0857 6.99996C12.0857 7.30854 12.236 7.59939 12.4851 7.78282L13.3571 8.42625C13.5377 8.55997 13.6143 8.79311 13.548 9.00739C13.2403 10.0017 12.7115 10.9135 12.0011 11.6743C11.9268 11.754 11.8295 11.8087 11.7227 11.8307C11.6159 11.8527 11.505 11.841 11.4051 11.7971H11.4057ZM8.29315 11.684C8.4295 11.2569 8.71972 10.8958 9.10743 10.6708C9.35685 10.5271 9.6365 10.4439 9.92391 10.4279C10.2113 10.412 10.4985 10.4636 10.7623 10.5788L11.5303 10.916C12.0236 10.3448 12.4054 9.68616 12.656 8.97425L11.9766 8.47311V8.47254C11.7453 8.3027 11.5571 8.08092 11.4271 7.82504C11.2972 7.56917 11.2292 7.28636 11.2286 6.99939C11.2286 6.41254 11.5126 5.86796 11.9754 5.52739L11.9766 5.52682L12.6549 5.02568C12.4041 4.3139 12.0221 3.65546 11.5286 3.08454L10.7669 3.41939L10.7657 3.41997C10.5337 3.52282 10.284 3.57539 10.0309 3.57539C9.58069 3.57472 9.14657 3.40811 8.81154 3.10744C8.4765 2.80677 8.26407 2.39315 8.21486 1.94568V1.94454L8.12172 1.11025C7.75411 1.04179 7.38132 1.00489 7.00743 0.999965C6.62229 1.00511 6.24743 1.04225 5.87886 1.11025L5.78572 1.94511C5.75368 2.23 5.65526 2.50341 5.49835 2.74334C5.34144 2.98328 5.13043 3.18306 4.88227 3.32662C4.63412 3.47018 4.35574 3.55351 4.06952 3.56992C3.7833 3.58633 3.49723 3.53536 3.23429 3.42111L2.47086 3.08511C1.97733 3.65602 1.59529 4.31446 1.34457 5.02625L2.02457 5.52739C2.2554 5.69738 2.44305 5.91925 2.57237 6.17509C2.70169 6.43093 2.76907 6.71358 2.76907 7.00025C2.76907 7.28692 2.70169 7.56957 2.57237 7.82541C2.44305 8.08126 2.2554 8.30312 2.02457 8.47311L1.34457 8.97482C1.59482 9.68774 1.97667 10.3474 2.47029 10.9194L3.23886 10.5822C3.50096 10.4675 3.78637 10.416 4.07205 10.4319C4.35772 10.4478 4.63566 10.5306 4.88343 10.6737C5.1311 10.8168 5.34175 11.0159 5.49846 11.2552C5.65516 11.4945 5.75355 11.7672 5.78572 12.0514V12.0542L5.87829 12.8908C6.61943 13.0365 7.38115 13.0365 8.12229 12.8908L8.21486 12.0525C8.22857 11.9268 8.25486 11.8028 8.29372 11.684H8.29315Z" fill="#383838"/>
</svg>
