<svg width="24" height="24" viewBox="0 0 24 24" fill="none" xmlns="http://www.w3.org/2000/svg">
<path d="M12.3149 19.5C15.4739 19.5 17.4329 17.8695 17.4329 15.2655C17.4329 13.3065 15.9569 11.841 13.9469 11.6865V11.604C14.7167 11.4881 15.4196 11.1009 15.929 10.5123C16.4384 9.92368 16.7207 9.1724 16.7249 8.39398C16.7249 6.12898 14.9819 4.70398 12.2039 4.70398H5.7644V19.5H12.3149ZM8.8619 7.01098H11.4059C12.8504 7.01098 13.6814 7.68748 13.6814 8.87698C13.6814 10.128 12.7379 10.857 11.0864 10.857H8.8619V7.00948V7.01098ZM8.8619 17.193V12.897H11.4569C13.2824 12.897 14.2769 13.635 14.2769 15.0195C14.2769 16.434 13.3124 17.193 11.5289 17.193H8.8604H8.8619Z" fill="#383838"/>
</svg>
