<svg width="20" height="14" viewBox="0 0 20 14" fill="none" xmlns="http://www.w3.org/2000/svg">
<path d="M20 1C20 0.734784 19.8946 0.48043 19.7071 0.292893C19.5196 0.105357 19.2652 0 19 0H1C0.734783 0 0.480429 0.105357 0.292892 0.292893C0.105356 0.48043 0 0.734784 0 1C0 1.26522 0.105356 1.51957 0.292892 1.70711C0.480429 1.89464 0.734783 2 1 2H19C19.2652 2 19.5196 1.89464 19.7071 1.70711C19.8946 1.51957 20 1.26522 20 1Z" fill="#373737"/>
<path d="M20 7C20 6.73478 19.8946 6.48043 19.7071 6.29289C19.5196 6.10536 19.2652 6 19 6H1C0.734783 6 0.480429 6.10536 0.292892 6.29289C0.105356 6.48043 0 6.73478 0 7C0 7.26522 0.105356 7.51957 0.292892 7.70711C0.480429 7.89464 0.734783 8 1 8H19C19.2652 8 19.5196 7.89464 19.7071 7.70711C19.8946 7.51957 20 7.26522 20 7Z" fill="#373737"/>
<path d="M19 12C19.2652 12 19.5196 12.1054 19.7071 12.2929C19.8946 12.4804 20 12.7348 20 13C20 13.2652 19.8946 13.5196 19.7071 13.7071C19.5196 13.8946 19.2652 14 19 14H7C6.73478 14 6.48043 13.8946 6.29289 13.7071C6.10536 13.5196 6 13.2652 6 13C6 12.7348 6.10536 12.4804 6.29289 12.2929C6.48043 12.1054 6.73478 12 7 12H19Z" fill="#373737"/>
</svg>
