<svg width="16" height="16" viewBox="0 0 16 16" fill="none" xmlns="http://www.w3.org/2000/svg">
<path d="M14.2078 7.91094L12.2141 6.33751C12.1974 6.32438 12.1773 6.31623 12.1562 6.31397C12.1351 6.31171 12.1138 6.31544 12.0947 6.32474C12.0757 6.33403 12.0596 6.34852 12.0484 6.36653C12.0371 6.38453 12.0312 6.40534 12.0313 6.42657V7.43751H8.56251V3.96876H9.57501C9.66876 3.96876 9.72188 3.85938 9.66407 3.78594L8.08907 1.79219C8.07864 1.7787 8.06527 1.76778 8.04996 1.76026C8.03466 1.75275 8.01784 1.74884 8.00079 1.74884C7.98374 1.74884 7.96691 1.75275 7.95161 1.76026C7.93631 1.76778 7.92293 1.7787 7.91251 1.79219L6.33751 3.78594C6.32438 3.80262 6.31623 3.82266 6.31397 3.84377C6.31171 3.86487 6.31544 3.88618 6.32474 3.90526C6.33403 3.92434 6.34852 3.94042 6.36653 3.95165C6.38453 3.96288 6.40534 3.96881 6.42657 3.96876H7.43751V7.43751H3.96876V6.42501C3.96876 6.33126 3.85938 6.27813 3.78594 6.33594L1.79219 7.91094C1.7787 7.92137 1.76778 7.93474 1.76026 7.95005C1.75275 7.96535 1.74884 7.98217 1.74884 7.99922C1.74884 8.01627 1.75275 8.0331 1.76026 8.0484C1.76778 8.0637 1.7787 8.07708 1.79219 8.0875L3.78438 9.66251C3.85782 9.72032 3.96719 9.66876 3.96719 9.57344V8.56251H7.43594V12.0313H6.42344C6.32969 12.0313 6.27657 12.1406 6.33438 12.2141L7.90938 14.2063C7.95469 14.2641 8.04219 14.2641 8.08594 14.2063L9.66094 12.2141C9.71876 12.1406 9.66719 12.0313 9.57188 12.0313H8.56251V8.56251H12.0313V9.57501C12.0313 9.66876 12.1406 9.72188 12.2141 9.66407L14.2063 8.08907C14.2197 8.0785 14.2306 8.06504 14.2382 8.04969C14.2457 8.03434 14.2497 8.01749 14.2498 8.00038C14.25 7.98328 14.2463 7.96636 14.239 7.95087C14.2317 7.93539 14.2211 7.92175 14.2078 7.91094Z" fill="#898B96"/>
</svg>
