<svg width="21" height="20" viewBox="0 0 21 20" fill="none" xmlns="http://www.w3.org/2000/svg">
<path d="M14.8003 7.50006C14.8003 7.69704 14.7615 7.8921 14.6861 8.07409C14.6107 8.25607 14.5002 8.42143 14.361 8.56072C14.2217 8.70001 14.0563 8.8105 13.8743 8.88588C13.6923 8.96126 13.4973 9.00006 13.3003 9.00006C13.1033 9.00006 12.9083 8.96126 12.7263 8.88588C12.5443 8.8105 12.3789 8.70001 12.2396 8.56072C12.1003 8.42143 11.9899 8.25607 11.9145 8.07409C11.8391 7.8921 11.8003 7.69704 11.8003 7.50006C11.8003 7.10224 11.9583 6.72071 12.2396 6.4394C12.5209 6.1581 12.9025 6.00006 13.3003 6.00006C13.6981 6.00006 14.0796 6.1581 14.361 6.4394C14.6423 6.72071 14.8003 7.10224 14.8003 7.50006ZM13.8003 7.50006C13.8003 7.36745 13.7476 7.24028 13.6538 7.14651C13.5601 7.05274 13.4329 7.00006 13.3003 7.00006C13.1677 7.00006 13.0405 7.05274 12.9467 7.14651C12.853 7.24028 12.8003 7.36745 12.8003 7.50006C12.8003 7.63267 12.853 7.75985 12.9467 7.85361C13.0405 7.94738 13.1677 8.00006 13.3003 8.00006C13.4329 8.00006 13.5601 7.94738 13.6538 7.85361C13.7476 7.75985 13.8003 7.63267 13.8003 7.50006ZM3.80029 6.00006C3.80029 5.20441 4.11636 4.44135 4.67897 3.87874C5.24158 3.31613 6.00464 3.00006 6.80029 3.00006H14.8003C15.5959 3.00006 16.359 3.31613 16.9216 3.87874C17.4842 4.44135 17.8003 5.20441 17.8003 6.00006V14.0001C17.8003 14.7957 17.4842 15.5588 16.9216 16.1214C16.359 16.684 15.5959 17.0001 14.8003 17.0001H6.80029C6.00464 17.0001 5.24158 16.684 4.67897 16.1214C4.11636 15.5588 3.80029 14.7957 3.80029 14.0001V6.00006ZM6.80029 4.00006C6.26986 4.00006 5.76115 4.21077 5.38608 4.58585C5.01101 4.96092 4.80029 5.46963 4.80029 6.00006V14.0001C4.80029 14.3731 4.90229 14.7221 5.08029 15.0201L9.74929 10.4321C10.0298 10.1566 10.4072 10.0023 10.8003 10.0023C11.1934 10.0023 11.5708 10.1566 11.8513 10.4321L16.5213 15.0201C16.7046 14.7114 16.801 14.359 16.8003 14.0001V6.00006C16.8003 5.46963 16.5896 4.96092 16.2145 4.58585C15.8394 4.21077 15.3307 4.00006 14.8003 4.00006H6.80029ZM6.80029 16.0001H14.8003C15.1703 16.0001 15.5153 15.9001 15.8123 15.7261L11.1503 11.1461C11.0568 11.0544 10.9312 11.0031 10.8003 11.0031C10.6694 11.0031 10.5438 11.0544 10.4503 11.1461L5.78829 15.7261C6.09507 15.9062 6.44453 16.0008 6.80029 16.0001Z" fill="#F6DA2B"/>
<path fill-rule="evenodd" clip-rule="evenodd" d="M4.67897 3.87874C4.11636 4.44135 3.80029 5.20441 3.80029 6.00006V14.0001C3.80029 14.7957 4.11636 15.5588 4.67897 16.1214C5.24158 16.684 6.00464 17.0001 6.80029 17.0001H14.8003C15.5959 17.0001 16.359 16.684 16.9216 16.1214C17.4842 15.5588 17.8003 14.7957 17.8003 14.0001V6.00006C17.8003 5.20441 17.4842 4.44135 16.9216 3.87874C16.359 3.31613 15.5959 3.00006 14.8003 3.00006H6.80029C6.00464 3.00006 5.24158 3.31613 4.67897 3.87874ZM4.80502 14.1388C4.80189 14.0929 4.80029 14.0467 4.80029 14.0001V6.00006C4.80029 4.89549 5.69572 4.00006 6.80029 4.00006H14.8003C15.9049 4.00006 16.8003 4.89549 16.8003 6.00006V14.0001C16.801 14.359 16.7046 14.7114 16.5213 15.0201L16.5211 15.0199C16.3483 15.3109 16.1038 15.5542 15.8119 15.7257L15.8123 15.7261C15.5339 15.8892 15.2132 15.9873 14.8694 15.9989C14.8464 15.9997 14.8234 16.0001 14.8003 16.0001H6.80029C6.44453 16.0008 6.09507 15.9062 5.78829 15.7261L5.78865 15.7257C5.31784 15.4491 4.97023 14.9853 4.84807 14.4366C4.82651 14.3398 4.81198 14.2403 4.80502 14.1388Z" fill="#383838"/>
</svg>
