<svg width="10" height="10" viewBox="0 0 10 10" fill="none" xmlns="http://www.w3.org/2000/svg">
<path d="M5 0.625C5.14504 0.625 5.28414 0.682617 5.3867 0.785176C5.48926 0.887735 5.54688 1.02683 5.54688 1.17188V4.45312H8.82812C8.97317 4.45312 9.11227 4.51074 9.21482 4.6133C9.31738 4.71586 9.375 4.85496 9.375 5C9.375 5.14504 9.31738 5.28414 9.21482 5.3867C9.11227 5.48926 8.97317 5.54688 8.82812 5.54688H5.54688V8.82812C5.54688 8.97317 5.48926 9.11227 5.3867 9.21482C5.28414 9.31738 5.14504 9.375 5 9.375C4.85496 9.375 4.71586 9.31738 4.6133 9.21482C4.51074 9.11227 4.45312 8.97317 4.45312 8.82812V5.54688H1.17188C1.02683 5.54688 0.887735 5.48926 0.785176 5.3867C0.682617 5.28414 0.625 5.14504 0.625 5C0.625 4.85496 0.682617 4.71586 0.785176 4.6133C0.887735 4.51074 1.02683 4.45312 1.17188 4.45312H4.45312V1.17188C4.45312 1.02683 4.51074 0.887735 4.6133 0.785176C4.71586 0.682617 4.85496 0.625 5 0.625V0.625Z" fill="#898B96"/>
</svg>
