<svg width="18" height="18" viewBox="0 0 18 18" fill="none" xmlns="http://www.w3.org/2000/svg">
<path d="M7.565 5.57H14.065L11.285 2.825C11.1902 2.73018 11.1369 2.60158 11.1369 2.4675C11.1369 2.33341 11.1902 2.20481 11.285 2.11C11.3798 2.01518 11.5084 1.96191 11.6425 1.96191C11.7766 1.96191 11.9052 2.01518 12 2.11L16 6.065L12 10C11.9058 10.0935 11.7784 10.1457 11.6457 10.1453C11.5131 10.1448 11.386 10.0916 11.2925 9.9975C11.199 9.90334 11.1468 9.77591 11.1472 9.64323C11.1477 9.51055 11.2008 9.38348 11.295 9.29L14.07 6.57H7.57C6.36849 6.56333 5.21334 7.03323 4.35766 7.87672C3.50198 8.72022 3.01557 9.86852 3.005 11.07C3.01077 11.9028 3.24752 12.7176 3.6889 13.4238C4.13028 14.13 4.75897 14.6999 5.505 15.07C5.62833 15.1323 5.72184 15.2411 5.76497 15.3724C5.78633 15.4374 5.79468 15.5059 5.78953 15.5742C5.78439 15.6424 5.76586 15.7089 5.735 15.77C5.70414 15.8311 5.66155 15.8854 5.60967 15.9301C5.55779 15.9747 5.49763 16.0086 5.43263 16.03C5.30136 16.0731 5.15833 16.0623 5.035 16C3.92643 15.4406 3.03977 14.5225 2.51929 13.3951C1.9988 12.2678 1.87512 10.9975 2.16837 9.79086C2.46161 8.58427 3.15453 7.51241 4.13437 6.74967C5.11422 5.98693 6.32334 5.57821 7.565 5.59V5.57Z" fill="#898B96"/>
</svg>
