<svg width="14" height="14" viewBox="0 0 14 14" fill="none" xmlns="http://www.w3.org/2000/svg">
<path d="M8.31201 11.3751C8.31201 11.7232 8.17373 12.057 7.92759 12.3031C7.68145 12.5493 7.34761 12.6876 6.99951 12.6876C6.65142 12.6876 6.31758 12.5493 6.07143 12.3031C5.82529 12.057 5.68701 11.7232 5.68701 11.3751C5.68701 11.027 5.82529 10.6931 6.07143 10.447C6.31758 10.2008 6.65142 10.0626 6.99951 10.0626C7.34761 10.0626 7.68145 10.2008 7.92759 10.447C8.17373 10.6931 8.31201 11.027 8.31201 11.3751ZM8.31201 7.00006C8.31201 7.34816 8.17373 7.682 7.92759 7.92814C7.68145 8.17428 7.34761 8.31256 6.99951 8.31256C6.65142 8.31256 6.31758 8.17428 6.07143 7.92814C5.82529 7.682 5.68701 7.34816 5.68701 7.00006C5.68701 6.65196 5.82529 6.31812 6.07143 6.07198C6.31758 5.82584 6.65142 5.68756 6.99951 5.68756C7.34761 5.68756 7.68145 5.82584 7.92759 6.07198C8.17373 6.31812 8.31201 6.65196 8.31201 7.00006ZM8.31201 2.62506C8.31201 2.97316 8.17373 3.307 7.92759 3.55314C7.68145 3.79928 7.34761 3.93756 6.99951 3.93756C6.65142 3.93756 6.31758 3.79928 6.07143 3.55314C5.82529 3.307 5.68701 2.97316 5.68701 2.62506C5.68701 2.27696 5.82529 1.94312 6.07143 1.69698C6.31758 1.45084 6.65142 1.31256 6.99951 1.31256C7.34761 1.31256 7.68145 1.45084 7.92759 1.69698C8.17373 1.94312 8.31201 2.27696 8.31201 2.62506Z" fill="#898B96"/>
</svg>
